# File created by Blade
# Date/Time:  Thu Jan 22 16:05:08 2015
#---------------------------------------------------------
:version 1.10
:name HOM
:units
  mass 1.0
  length 1.000000
  angle deg
:documentation
     Acclaim Skeleton File
:root
   axis xyz
   order TX TY TZ RX RY RZ
   position 0.000000 0.000000 0.000000
   orientation 0 0 0
:bonedata
   begin
      id 1
      name RightUpLeg_dum
      direction -1.000000 0.000000 0.000000
      length 3.766986
      axis 0.0 0.0 0.0 xyz
   end
   begin
      id 2
      name LeftUpLeg_dum
      direction 1.000000 0.000000 0.000000
      length 3.766986
      axis 0.0 0.0 0.0 xyz
   end
   begin
      id 3
      name Spine_dum
      direction 0.000000 1.000000 0.000000
      length 7.779697
      axis 0.0 0.0 0.0 xyz
   end
   begin
      id 4
      name RightUpLeg
      direction 0.000000 -1.000000 0.000000
      length 18.017682
      axis 0.0 0.0 0.0 xyz
      dof rx ry rz
   end
   begin
      id 5
      name RightLeg
      direction 0.000000 -1.000000 0.000000
      length 16.881075
      axis 0.0 0.0 0.0 xyz
      dof rx ry rz
   end
   begin
      id 6
      name RightFoot
      direction 0.000000 -0.258819 0.965926
      length 5.770812
      axis 15.0 0.0 0.0 xyz
      dof rx ry rz
   end
   begin
      id 7
      name RightToeBase
      direction 0.000000 0.000000 1.000000
      length 2.952750
      axis 0.0 0.0 0.0 xyz
      dof rx ry rz
   end
   begin
      id 8
      name LeftUpLeg
      direction 0.000000 -1.000000 0.000000
      length 18.017682
      axis 0.0 0.0 0.0 xyz
      dof rx ry rz
   end
   begin
      id 9
      name LeftLeg
      direction 0.000000 -1.000000 0.000000
      length 16.881075
      axis 0.0 0.0 0.0 xyz
      dof rx ry rz
   end
   begin
      id 10
      name LeftFoot
      direction 0.000000 -0.258819 0.965926
      length 5.770812
      axis 15.0 0.0 0.0 xyz
      dof rx ry rz
   end
   begin
      id 11
      name LeftToeBase
      direction 0.000000 0.000000 1.000000
      length 2.952750
      axis 0.0 0.0 0.0 xyz
      dof rx ry rz
   end
   begin
      id 12
      name Spine
      direction 0.000000 1.000000 0.000000
      length 0.000000
      axis 0.0 0.0 0.0 xyz
      dof rx ry rz
   end
   begin
      id 13
      name Spine_dum1
      direction 0.000000 1.000000 0.000000
      length 10.941760
      axis 0.0 0.0 0.0 xyz
   end
   begin
      id 14
      name Spine_dum2
      direction 0.000000 1.000000 0.000000
      length 10.941760
      axis 0.0 0.0 0.0 xyz
   end
   begin
      id 15
      name Spine_dum3
      direction 0.000000 1.000000 0.000000
      length 16.646042
      axis 0.0 0.0 0.0 xyz
   end
   begin
      id 16
      name RightShoulder
      direction -1.000000 0.000000 0.000000
      length 7.708937
      axis 0.0 0.0 90.0 xyz
      dof rx ry rz
   end
   begin
      id 17
      name RightArm
      direction -1.000000 0.000000 0.000000
      length 11.521345
      axis 0.0 0.0 90.0 xyz
      dof rx ry rz
   end
   begin
      id 18
      name RightForeArm
      direction -1.000000 0.000000 0.000000
      length 10.175898
      axis 0.0 0.0 90.0 xyz
      dof ry rz rx
   end
   begin
      id 19
      name RightHand
      direction -1.000000 0.000000 0.000000
      length 0.000000
      axis 0.0 0.0 90.0 xyz
      dof rx ry rz
   end
   begin
      id 20
      name RightHand_dum1
      direction -1.000000 0.000000 0.000000
      length 3.937000
      axis 0.0 0.0 90.0 xyz
   end
   begin
      id 21
      name RightHand_dum2
      direction 0.000000 0.000000 0.000000
      length 0.000000
      axis 0.0 0.0 90.0 xyz
   end
   begin
      id 22
      name RightHandThumb1
      direction 0.000000 0.000000 1.000000
      length 3.937000
      axis 0.0 0.0 90.0 xyz
      dof rx rz ry
   end
   begin
      id 23
      name LeftShoulder
      direction 1.000000 0.000000 0.000000
      length 7.708937
      axis 0.0 0.0 -90.0 xyz
      dof rx ry rz
   end
   begin
      id 24
      name LeftArm
      direction 1.000000 0.000000 0.000000
      length 11.521345
      axis 0.0 0.0 -90.0 xyz
      dof rx ry rz
   end
   begin
      id 25
      name LeftForeArm
      direction 1.000000 0.000000 0.000000
      length 10.175898
      axis 0.0 0.0 -90.0 xyz
      dof ry rz rx
   end
   begin
      id 26
      name LeftHand
      direction 1.000000 0.000000 0.000000
      length 0.000000
      axis 0.0 0.0 -90.0 xyz
      dof rx ry rz
   end
   begin
      id 27
      name LeftHand_dum1
      direction 1.000000 0.000000 0.000000
      length 3.937000
      axis 0.0 0.0 -90.0 xyz
   end
   begin
      id 28
      name LeftHand_dum2
      direction 0.000000 0.000000 0.000000
      length 0.000000
      axis 0.0 0.0 -90.0 xyz
   end
   begin
      id 29
      name LeftHandThumb1
      direction 0.000000 0.000000 1.000000
      length 3.937000
      axis 0.0 0.0 -90.0 xyz
      dof rx rz ry
   end
   begin
      id 30
      name Head
      direction 0.000000 1.000000 0.000000
      length 4.527550
      axis 0.0 0.0 0.0 xyz
      dof rx ry rz
   end
:hierarchy
   begin
      root RightUpLeg_dum LeftUpLeg_dum Spine_dum
      RightUpLeg_dum RightUpLeg
      LeftUpLeg_dum LeftUpLeg
      Spine_dum Spine
      RightUpLeg RightLeg
      RightLeg RightFoot
      RightFoot RightToeBase
      LeftUpLeg LeftLeg
      LeftLeg LeftFoot
      LeftFoot LeftToeBase
      Spine Spine_dum1 Spine_dum2 Spine_dum3
      Spine_dum1 RightShoulder
      Spine_dum2 LeftShoulder
      Spine_dum3 Head
      RightShoulder RightArm
      RightArm RightForeArm
      RightForeArm RightHand
      RightHand RightHand_dum1 RightHand_dum2
      RightHand_dum2 RightHandThumb1
      LeftShoulder LeftArm
      LeftArm LeftForeArm
      LeftForeArm LeftHand
      LeftHand LeftHand_dum1 LeftHand_dum2
      LeftHand_dum2 LeftHandThumb1
   end

# File created by Blade
# Date/Time:  Thu Jan 22 16:04:59 2015
# Frame Rate: 120.000 fps
#------------------------------------------------------
:FULLY-SPECIFIED
:DEGREES
1
root 3.548977 36.890878 5.252914 -4.171187 -4.473228 2.327223
RightUpLeg 11.204182 -5.332819 -10.016185
RightLeg -4.963786 -0.000000 0.000000
RightFoot -9.883342 -10.304864 20.496912
RightToeBase 16.163281 -0.000000 -0.000000
LeftUpLeg 9.681510 2.926937 5.974234
LeftLeg -2.036114 -0.000000 0.000000
LeftFoot -6.812571 8.442025 -21.407651
LeftToeBase 9.175796 -0.000000 -0.000000
Spine 9.738151 -3.214971 -3.586279
RightShoulder -5.489538 -13.686930 -27.413580
RightArm 8.974809 29.420593 32.919689
RightForeArm 6.850826 -0.000000 19.239825
RightHand 1.383610 0.000000 6.830464
RightHandThumb1 -24.326973 -0.000000 -32.862282
LeftShoulder -27.684154 35.571728 13.249944
LeftArm 42.771176 -48.909930 -55.345043
LeftForeArm 33.682538 -0.000000 5.486680
LeftHand -17.678796 -0.000000 -6.294357
LeftHandThumb1 -26.253704 0.000000 33.147579
Head 3.014450 13.946160 3.046639
2
root 3.547320 36.891272 5.250793 -4.167392 -4.469564 2.320826
RightUpLeg 11.197663 -5.329705 -10.006034
RightLeg -4.960857 -0.000000 0.000000
RightFoot -9.875615 -10.309622 20.468812
RightToeBase 16.141698 -0.000000 -0.000000
LeftUpLeg 9.667353 2.920419 5.984604
LeftLeg -2.020619 -0.000000 0.000000
LeftFoot -6.814451 8.430228 -21.429325
LeftToeBase 9.157205 -0.000000 -0.000000
Spine 9.733479 -3.216181 -3.581146
RightShoulder -5.472222 -13.662506 -27.415165
RightArm 8.951856 29.410932 32.918759
RightForeArm 6.853357 -0.000000 19.261981
RightHand 1.394094 -0.000000 6.801549
RightHandThumb1 -24.326973 -0.000000 -32.862282
LeftShoulder -27.687691 35.572545 13.255534
LeftArm 42.782351 -48.922360 -55.354661
LeftForeArm 33.727165 -0.000000 5.499678
LeftHand -17.677757 -0.000000 -6.335198
LeftHandThumb1 -26.253704 0.000000 33.147579
Head 3.040664 13.945543 3.060798
3
root 3.546549 36.891171 5.249144 -4.167238 -4.472609 2.320207
RightUpLeg 11.195974 -5.315773 -10.002279
RightLeg -4.966367 -0.000000 0.000000
RightFoot -9.884756 -10.319716 20.506230
RightToeBase 16.163290 -0.000000 -0.000000
LeftUpLeg 9.664078 2.933159 5.988061
LeftLeg -2.016912 -0.000000 0.000000
LeftFoot -6.814736 8.417200 -21.427724
LeftToeBase 9.167027 -0.000000 -0.000000
Spine 9.735390 -3.205173 -3.580605
RightShoulder -5.480249 -13.658469 -27.410600
RightArm 8.969232 29.409383 32.928344
RightForeArm 6.853889 -0.000000 19.272958
RightHand 1.385065 -0.000000 6.814669
RightHandThumb1 -24.326973 -0.000000 -32.862282
LeftShoulder -27.688662 35.561239 13.268765
LeftArm 42.781333 -48.920697 -55.350348
LeftForeArm 33.749188 -0.000000 5.505440
LeftHand -17.676105 0.000000 -6.367817
LeftHandThumb1 -26.253704 0.000000 33.147579
Head 3.051707 13.885344 3.046082
4
root 3.545272 36.891242 5.248073 -4.167300 -4.470634 2.316278
RightUpLeg 11.197370 -5.306475 -9.994901
RightLeg -4.968663 -0.000000 0.000000
RightFoot -9.884777 -10.329158 20.497838
RightToeBase 16.156706 -0.000000 -0.000000
LeftUpLeg 9.655995 2.942768 5.995679
LeftLeg -2.000926 -0.000000 0.000000
LeftFoot -6.820892 8.401641 -21.429527
LeftToeBase 9.186613 -0.000000 -0.000000
Spine 9.733684 -3.200029 -3.572506
RightShoulder -5.489399 -13.715072 -27.402305
RightArm 9.021038 29.428786 32.942275
RightForeArm 6.882466 -0.000000 19.282848
RightHand 1.395007 -0.000000 6.794052
RightHandThumb1 -24.326973 -0.000000 -32.862282
LeftShoulder -27.677873 35.558681 13.272798
LeftArm 42.760767 -48.923740 -55.323698
LeftForeArm 33.751059 -0.000000 5.514776
LeftHand -17.697454 -0.000000 -6.380651
LeftHandThumb1 -26.253704 0.000000 33.147579
Head 3.072867 13.883651 3.046644
5
root 3.545157 36.891477 5.247409 -4.167601 -4.468244 2.317615
RightUpLeg 11.195979 -5.311120 -9.995934
RightLeg -4.964855 -0.000000 0.000000
RightFoot -9.884244 -10.316322 20.518765
RightToeBase 16.156320 -0.000000 -0.000000
LeftUpLeg 9.657061 2.918755 5.992373
LeftLeg -2.006927 -0.000000 0.000000
LeftFoot -6.816359 8.416714 -21.438515
LeftToeBase 9.154664 -0.000000 -0.000000
Spine 9.729774 -3.202169 -3.572285
RightShoulder -5.484257 -13.708301 -27.398612
RightArm 9.024194 29.418318 32.935738
RightForeArm 6.864715 0.000000 19.302937
RightHand 1.417197 -0.000000 6.735024
RightHandThumb1 -24.326973 -0.000000 -32.862282
LeftShoulder -27.684673 35.560896 13.271736
LeftArm 42.763364 -48.935462 -55.325139
LeftForeArm 33.764831 0.000000 5.531046
LeftHand -17.694967 -0.000000 -6.431927
LeftHandThumb1 -26.253704 0.000000 33.147579
Head 3.092788 13.878873 3.049912
6
root 3.544255 36.891506 5.246367 -4.170140 -4.468470 2.315430
RightUpLeg 11.194617 -5.311261 -9.993654
RightLeg -4.960918 -0.000000 0.000000
RightFoot -9.885810 -10.322200 20.502507
RightToeBase 16.188414 -0.000000 -0.000000
LeftUpLeg 9.650655 2.929399 5.997436
LeftLeg -1.991316 -0.000000 0.000000
LeftFoot -6.821201 8.407934 -21.430036
LeftToeBase 9.157397 -0.000000 -0.000000
Spine 9.731861 -3.189407 -3.564559
RightShoulder -5.490462 -13.707998 -27.398583
RightArm 9.029125 29.413097 32.937744
RightForeArm 6.889314 -0.000000 19.315982
RightHand 1.397155 -0.000000 6.853611
RightHandThumb1 -24.326973 -0.000000 -32.862282
LeftShoulder -27.684551 35.560180 13.265615
LeftArm 42.787539 -48.952179 -55.328498
LeftForeArm 33.780847 -0.000000 5.529290
LeftHand -17.674746 -0.000000 -6.453778
LeftHandThumb1 -26.253704 0.000000 33.147579
Head 3.104053 13.878393 3.052454
7
root 3.544436 36.891324 5.246441 -4.171383 -4.469200 2.315923
RightUpLeg 11.194767 -5.302859 -9.996479
RightLeg -4.958019 -0.000000 0.000000
RightFoot -9.884628 -10.307463 20.491627
RightToeBase 16.187249 -0.000000 -0.000000
LeftUpLeg 9.648308 2.933036 5.997668
LeftLeg -1.982482 -0.000000 0.000000
LeftFoot -6.822773 8.402627 -21.423065
LeftToeBase 9.180440 -0.000000 -0.000000
Spine 9.725889 -3.184279 -3.558089
RightShoulder -5.489423 -13.708316 -27.403879
RightArm 9.042843 29.406473 32.941257
RightForeArm 6.880156 -0.000000 19.321856
RightHand 1.378066 -0.000000 6.850333
RightHandThumb1 -24.326973 -0.000000 -32.862282
LeftShoulder -27.685247 35.562157 13.268081
LeftArm 42.785314 -48.948831 -55.321150
LeftForeArm 33.769563 0.000000 5.532625
LeftHand -17.673053 -0.000000 -6.442134
LeftHandThumb1 -26.253704 0.000000 33.147579
Head 3.125751 13.891412 3.055277
8
root 3.545390 36.891198 5.248775 -4.189116 -4.477668 2.318894
RightUpLeg 11.216590 -5.291083 -10.001872
RightLeg -4.960578 -0.000000 0.000000
RightFoot -9.893816 -10.300843 20.524464
RightToeBase 16.151046 -0.000000 -0.000000
LeftUpLeg 9.672003 2.938124 5.993696
LeftLeg -1.983075 -0.000000 0.000000
LeftFoot -6.834337 8.400566 -21.442992
LeftToeBase 9.155789 -0.000000 -0.000000
Spine 9.736142 -3.166573 -3.548868
RightShoulder -5.485741 -13.701740 -27.417389
RightArm 9.038566 29.386835 32.940604
RightForeArm 6.901426 -0.000000 19.325159
RightHand 1.373854 -0.000000 6.841749
RightHandThumb1 -24.326973 -0.000000 -32.862282
LeftShoulder -27.667674 35.550569 13.277954
LeftArm 42.753918 -48.946123 -55.298147
LeftForeArm 33.729622 -0.000000 5.535138
LeftHand -17.628842 -0.000000 -6.386394
LeftHandThumb1 -26.253704 0.000000 33.147579
Head 3.145506 13.923212 3.055025
